<?xml version="1.0" standalone="no"?>
<!DOCTYPE svg PUBLIC "-//W3C//DTD SVG 20010904//EN"
 "http://www.w3.org/TR/2001/REC-SVG-20010904/DTD/svg10.dtd">
<svg version="1.0" xmlns="http://www.w3.org/2000/svg"
 width="334.000000pt" height="488.000000pt" viewBox="0 0 334.000000 488.000000"
 preserveAspectRatio="xMidYMid meet">
<metadata>
Created by potrace 1.16, written by Peter Selinger 2001-2019
</metadata>
<g transform="translate(0.000000,488.000000) scale(0.100000,-0.100000)"
fill="#000000" stroke="none">
<path d="M199 4751 c-46 -14 -69 -31 -86 -64 -17 -30 -18 -151 -18 -2242 0
-2417 -4 -2253 59 -2298 l31 -22 1460 -3 c1621 -3 1524 -7 1566 62 18 30 19
83 19 2258 l0 2227 -31 35 c-17 20 -47 40 -67 46 -44 12 -2893 13 -2933 1z
m2942 -47 c63 -32 59 124 59 -2266 0 -2058 -1 -2185 -18 -2218 -9 -19 -28 -40
-42 -47 -20 -10 -337 -13 -1482 -13 l-1458 0 -32 29 -33 29 -3 2209 c-2 2195
-2 2208 18 2241 11 18 30 37 43 42 13 5 634 9 1470 9 1296 1 1451 -1 1478 -15z"/>
<path d="M733 4544 c-43 -15 -70 -46 -78 -89 -4 -16 -5 -133 -3 -258 l3 -229
37 -34 c34 -31 43 -34 98 -34 35 0 74 7 90 15 56 29 60 50 60 310 0 254 -4
276 -53 308 -32 21 -108 26 -154 11z m87 -319 l0 -225 -25 0 -25 0 0 225 0
225 25 0 25 0 0 -225z"/>
<path d="M1516 4545 c-69 -25 -81 -44 -84 -144 -2 -51 1 -97 7 -109 6 -11 41
-42 78 -68 38 -26 71 -53 76 -58 4 -6 6 -45 5 -86 -3 -69 -5 -75 -25 -78 -22
-3 -23 0 -23 63 0 76 -5 81 -70 62 l-45 -13 -3 -61 c-5 -109 37 -153 146 -153
68 0 106 22 128 76 18 42 18 190 1 224 -7 13 -45 47 -84 75 l-73 50 0 63 c0
60 1 62 25 62 23 0 25 -4 25 -46 0 -36 3 -45 14 -41 8 3 30 9 50 12 19 4 41
13 47 21 26 31 -10 117 -61 144 -32 17 -96 19 -134 5z"/>
<path d="M290 4542 c0 -4 23 -84 52 -177 49 -162 52 -177 57 -315 l6 -145 55
0 55 0 6 140 c5 133 8 149 57 307 29 91 52 174 52 183 0 13 -10 15 -62 13
l-63 -3 -19 -113 c-11 -62 -22 -107 -26 -100 -4 7 -13 49 -20 93 -21 127 -19
125 -90 125 -33 0 -60 -4 -60 -8z"/>
<path d="M990 4270 c0 -309 3 -325 60 -355 16 -8 55 -15 89 -15 49 0 65 4 90
26 48 40 52 73 49 359 l-3 260 -57 3 -58 3 -2 -273 -3 -273 -22 -3 -23 -3 -2
273 -3 273 -57 3 -58 3 0 -281z"/>
<path d="M1772 4228 l3 -323 55 0 55 0 3 138 3 137 29 0 29 0 3 -137 3 -138
55 0 55 0 0 320 0 320 -57 3 -58 3 0 -131 0 -130 -30 0 -29 0 -3 128 -3 127
-58 3 -57 3 2 -323z"/>
<path d="M2186 4538 c-13 -42 -75 -623 -68 -630 5 -5 31 -8 58 -6 l49 3 5 52
c6 61 11 67 44 59 22 -5 25 -12 28 -59 l3 -52 59 -3 58 -3 -7 68 c-4 37 -21
183 -38 323 l-32 255 -78 3 c-56 2 -78 -1 -81 -10z"/>
<path d="M2475 4538 c-3 -7 -4 -153 -3 -323 l3 -310 123 -3 122 -3 0 56 0 55
-65 0 -65 0 -2 268 -3 267 -53 3 c-36 2 -54 -1 -57 -10z"/>
<path d="M2780 4225 l0 -326 123 3 122 3 3 52 3 52 -68 3 -68 3 -3 268 -2 267
-55 0 -55 0 0 -325z"/>
<path d="M1309 3904 c-9 -11 -55 -129 -102 -264 -47 -135 -128 -368 -181 -518
-53 -151 -96 -280 -96 -287 0 -26 -43 -25 -70 0 -35 34 -42 31 -22 -7 11 -23
15 -53 13 -100 -2 -57 0 -68 13 -68 9 0 16 -5 16 -11 0 -28 -42 -148 -55 -159
-19 -16 -19 -34 0 -50 20 -17 45 3 45 37 0 13 10 53 23 89 17 49 26 63 37 57
8 -3 31 -8 51 -11 l37 -4 7 -130 c7 -120 9 -130 29 -137 11 -5 34 -4 51 1 16
6 50 14 75 18 25 5 63 15 85 24 68 26 69 25 62 -56 -4 -40 -18 -116 -32 -168
-14 -52 -30 -126 -35 -163 -11 -76 -62 -263 -85 -307 -8 -16 -15 -37 -15 -47
0 -27 -58 -110 -128 -181 -52 -54 -72 -68 -132 -88 -125 -42 -141 -62 -65 -82
61 -16 149 -15 236 3 74 16 92 14 71 -7 -17 -17 -15 -46 6 -56 9 -5 38 -12 65
-15 26 -4 65 -16 87 -27 53 -27 161 -27 232 0 72 27 85 26 93 -9 3 -16 12 -35
20 -41 18 -15 234 -17 262 -2 12 7 34 12 50 12 15 0 41 7 57 15 40 21 105 19
192 -7 79 -23 129 -18 129 12 0 13 -44 51 -105 91 l-24 16 34 16 c18 9 41 17
52 17 31 0 20 29 -17 44 -19 8 -35 21 -35 28 0 15 -73 157 -105 203 -12 18
-32 66 -44 107 -13 40 -32 100 -42 133 -11 33 -30 94 -43 135 -13 41 -37 113
-54 160 -16 47 -35 124 -41 170 -5 47 -13 107 -17 134 l-7 49 31 -23 c26 -19
37 -22 59 -14 14 5 31 18 37 29 34 61 82 115 102 115 12 0 36 11 52 25 16 13
32 22 35 19 3 -3 19 2 36 10 16 9 40 15 53 13 23 -2 23 -2 20 108 l-4 111 27
12 c15 7 29 11 31 9 11 -11 24 -177 29 -392 7 -309 55 -1043 71 -1098 3 -9 10
-14 16 -11 7 5 8 30 4 73 -14 135 -29 586 -31 901 0 179 -5 382 -9 451 -6 86
-5 128 2 133 13 8 4 115 -11 134 -7 9 -12 108 -13 277 -1 249 -2 265 -22 297
-12 19 -31 43 -43 54 -22 19 -22 19 -15 -1 6 -16 5 -18 -5 -7 -21 19 -42 15
-36 -8 6 -24 -5 -26 -23 -5 -19 22 -30 18 -30 -11 0 -22 -2 -24 -15 -14 -16
13 -45 7 -45 -10 0 -6 10 -21 23 -34 37 -38 66 -82 73 -112 4 -16 13 -38 19
-49 18 -29 49 -305 42 -366 -4 -28 -14 -60 -23 -70 -19 -22 -52 -21 -65 2 -12
24 -45 13 -72 -23 -12 -16 -27 -26 -35 -23 -14 5 -44 -11 -102 -56 -35 -27
-94 -40 -117 -26 -22 13 -135 47 -159 47 -12 0 -26 5 -29 10 -3 6 4 10 17 10
21 1 22 2 6 14 -34 25 -21 50 45 89 84 49 103 65 91 76 -11 10 -114 46 -162
56 -23 5 -39 17 -52 38 -10 18 -31 54 -47 81 -15 26 -38 60 -50 75 l-22 26
-35 -34 c-20 -19 -50 -63 -68 -97 -30 -58 -37 -65 -105 -98 -40 -20 -75 -36
-79 -36 -3 0 -19 -11 -35 -25 l-30 -24 23 -15 c13 -8 48 -27 79 -41 64 -32 83
-65 68 -118 -11 -39 -11 -40 0 -32 16 9 33 -34 26 -63 -3 -14 -20 -39 -36 -56
-25 -26 -38 -31 -92 -34 -63 -4 -229 12 -248 24 -6 3 -2 12 10 21 28 19 27 36
-1 28 -62 -18 -61 -18 -56 1 3 11 44 138 91 284 219 679 248 772 245 797 -3
24 -4 25 -19 7z"/>
<path d="M923 1020 c-60 -36 -63 -52 -63 -331 0 -245 1 -254 22 -285 13 -18
33 -38 46 -43 34 -16 129 -13 162 4 57 29 60 48 60 330 0 285 -3 300 -66 330
-45 21 -122 19 -161 -5z m105 -327 c-3 -230 -4 -238 -23 -238 -19 0 -20 8 -23
238 l-2 237 25 0 25 0 -2 -237z"/>
<path d="M2332 1020 c-18 -11 -40 -36 -48 -55 -16 -40 -19 -164 -3 -197 6 -13
44 -48 85 -78 41 -30 77 -64 80 -75 3 -11 4 -52 2 -90 -3 -59 -6 -70 -22 -73
-27 -6 -36 15 -36 87 l0 64 -32 -6 c-18 -3 -45 -10 -60 -16 -26 -10 -28 -15
-28 -66 0 -67 18 -114 55 -143 22 -18 41 -22 95 -22 77 0 113 20 136 76 16 38
19 199 5 237 -6 14 -44 49 -86 78 -80 56 -88 70 -83 140 3 39 6 44 28 44 22 0
25 -5 28 -42 3 -48 6 -49 72 -29 39 11 45 17 48 44 5 44 -22 99 -60 122 -45
27 -131 27 -176 0z"/>
<path d="M2672 1023 c-49 -24 -62 -58 -62 -166 0 -106 -4 -99 113 -186 l57
-43 0 -85 c0 -67 -3 -85 -16 -90 -26 -10 -39 15 -39 77 -1 33 -4 62 -8 66 -3
3 -29 1 -56 -6 l-51 -12 0 -80 c0 -79 1 -81 36 -114 33 -32 40 -34 105 -34 65
0 72 2 107 34 l37 34 3 107 c2 58 1 117 -2 131 -4 14 -36 46 -82 81 -42 31
-79 66 -83 77 -6 17 -7 67 -2 109 1 4 12 7 26 7 23 0 25 -4 25 -46 l0 -46 36
7 c72 13 84 22 84 60 0 81 -59 135 -145 135 -27 0 -65 -8 -83 -17z"/>
<path d="M480 690 l0 -341 58 3 57 3 3 155 4 155 52 -155 53 -155 46 -3 47 -3
0 340 0 341 -60 0 -60 0 -1 -152 -1 -153 -51 153 -52 152 -47 0 -48 0 0 -340z"/>
<path d="M1180 975 l0 -55 40 0 40 0 2 -282 3 -283 55 0 55 0 3 282 2 282 43
3 42 3 3 53 3 52 -145 0 -146 0 0 -55z"/>
<path d="M1630 690 l0 -341 58 3 57 3 3 136 3 137 51 4 c44 5 57 11 85 42 l33
36 0 115 c0 182 -21 205 -190 205 l-100 0 0 -340z"/>
<path d="M1991 923 c-7 -60 -23 -200 -37 -313 -33 -284 -36 -262 34 -258 l57
3 3 58 3 57 34 0 34 0 3 -57 3 -58 58 -3 c57 -3 57 -3 57 26 0 16 -16 163 -35
326 -19 164 -35 304 -35 312 0 11 -18 14 -84 14 l-83 0 -12 -107z"/>
</g>
</svg>
